# xmcd CD database file
#
# Track frame offsets:
#	150
#	51277
#	69055
#	89677
#	106965
#	118472
#	164680
#	189720
#	206392
#	226142
#	241507
#	257205
#	273460
#
# Disc length: 3962 seconds
#
# Revision: 0
# Processed by: cddbd v1.5PL3 Copyright (c) Steve Scherf et al.
# Submitted via: NeoAudio 9.9.9
#
DISCID=b80f780d
DTITLE=Jan Strinnholm - Jan Strinnholm -95
DYEAR=1995
DGENRE=Jazz
TTITLE0=Step by Step
TTITLE1=My Romance
TTITLE2=Karin
TTITLE3=Old Age
TTITLE4=Disappointments
TTITLE5=Öknens frestelser
TTITLE6=You are the One for Me
TTITLE7=Konsum i Grillom
TTITLE8=For Jonathan
TTITLE9=How High the Moon
TTITLE10=My Gospel
TTITLE11=The Inventor
TTITLE12=Ser du stjärnan där i öster
EXTD=YEAR: 1995
EXTT0=
EXTT1=
EXTT2=
EXTT3=
EXTT4=
EXTT5=
EXTT6=
EXTT7=
EXTT8=
EXTT9=
EXTT10=
EXTT11=
EXTT12=
PLAYORDER=
